<svg width="17" height="17" viewBox="0 0 17 17" fill="none" xmlns="http://www.w3.org/2000/svg">
<path d="M8.75713 10.5875C8.75713 9.27846 8.1345 8.31088 6.84817 7.94821C7.78671 7.50125 8.27617 6.82408 8.27617 5.77079C8.27617 3.69396 6.7235 3.1875 4.93213 3.1875H0V13.6149H5.07025C6.97142 13.6149 8.75713 12.7061 8.75713 10.5875ZM2.29925 4.96754H4.45683C5.28629 4.96754 6.03288 5.19988 6.03288 6.15896C6.03288 7.04438 5.45204 7.40067 4.63038 7.40067H2.29925V4.96754ZM2.29854 11.844V8.97246H4.80463C5.81683 8.97246 6.45717 9.39321 6.45717 10.4614C6.45717 11.5147 5.69288 11.844 4.75717 11.844H2.29854Z" fill="#EBE3DF"/>
<path d="M13.3135 13.8123C15.1226 13.8123 16.2942 12.9998 16.858 11.2729H15.022C14.8244 11.9175 14.0098 12.2582 13.378 12.2582C12.1589 12.2582 11.5186 11.5463 11.5186 10.3365H16.982C17.1548 7.91543 15.8061 5.85205 13.3128 5.85205C11.0043 5.85205 9.4375 7.5818 9.4375 9.84776C9.4375 12.1994 10.9222 13.8123 13.3135 13.8123ZM13.2483 7.41888C14.2931 7.41888 14.8187 8.03088 14.9065 9.03176H11.5214C11.5901 8.03938 12.251 7.41888 13.2483 7.41888Z" fill="#EBE3DF"/>
<path d="M11.0977 3.73535H15.3392V4.76244H11.0977V3.73535Z" fill="#EBE3DF"/>
</svg>
