<svg width="14" height="14" viewBox="0 0 14 14" fill="none" xmlns="http://www.w3.org/2000/svg">
<path d="M10.7817 13.5747H13.5953L13.5961 8.59829C13.5961 6.156 13.0688 4.27975 10.218 4.27975C8.84608 4.27975 7.92775 5.03183 7.55013 5.74433H7.51371V4.50854H4.81096V13.5747H7.62454V9.08833C7.62454 7.90558 7.84858 6.76162 9.31554 6.76162C10.7603 6.76162 10.7817 8.11458 10.7817 9.16592V13.5747Z" fill="#EBE3DF"/>
<path d="M0 1.63321C0 2.53492 0.727542 3.268 1.63321 3.268C2.53492 3.268 3.26721 2.53492 3.26721 1.63321C3.26721 0.732292 2.53571 0 1.63321 0C0.728333 0 0 0.732292 0 1.63321Z" fill="#EBE3DF"/>
<path d="M0.222459 13.5747H3.04396V4.50854H0.222459V13.5747Z" fill="#EBE3DF"/>
</svg>
