<svg width="49" height="47" viewBox="0 0 49 47" fill="none" xmlns="http://www.w3.org/2000/svg">
<path d="M37.6934 30.9961V31.0352C37.6803 31.0677 37.6706 31.1165 37.6641 31.1816C37.6576 31.2467 37.6543 31.3053 37.6543 31.3574C37.6543 31.5592 37.6803 31.7839 37.7324 32.0312C37.791 32.2721 37.8984 32.5749 38.0547 32.9395L42.3809 42.6953L46.5605 33.0176C46.6582 32.7767 46.7624 32.513 46.873 32.2266C46.9837 31.9401 47.0391 31.6504 47.0391 31.3574C47.0391 31.2793 47.0326 31.2142 47.0195 31.1621C47.0065 31.1035 46.9935 31.0612 46.9805 31.0352V30.9961H48.9824V31.0352C48.8587 31.1589 48.709 31.3802 48.5332 31.6992C48.3574 32.0182 48.1654 32.4121 47.957 32.8809L42.3613 45.3027H41.5801L36.2773 33.3594C36.1536 33.0794 36.0234 32.8092 35.8867 32.5488C35.7565 32.2884 35.6328 32.054 35.5156 31.8457C35.3984 31.6309 35.2943 31.4518 35.2031 31.3086C35.112 31.1654 35.0501 31.0742 35.0176 31.0352V30.9961H37.6934Z" fill="#EBE3DF"/>
<path fill-rule="evenodd" clip-rule="evenodd" d="M8 46L40 2L40.4044 2.29409L8.40437 46.2941L8 46Z" fill="#EBE3DF"/>
<path d="M1.05078 0.996094L11.1094 11.6992V4.82422C11.1094 4.27083 11.1029 3.78906 11.0898 3.37891C11.0768 2.96224 11.0573 2.60417 11.0312 2.30469C11.0052 1.9987 10.9727 1.74479 10.9336 1.54297C10.901 1.34115 10.8652 1.17188 10.8262 1.03516V0.996094H12.5645V1.03516C12.5254 1.17188 12.4896 1.34115 12.457 1.54297C12.4245 1.74479 12.3952 1.9987 12.3691 2.30469C12.3431 2.60417 12.3236 2.96224 12.3105 3.37891C12.2975 3.78906 12.291 4.27083 12.291 4.82422V15.1953H11.9492L1.89062 4.50195V11.1816C1.89062 11.735 1.89714 12.2201 1.91016 12.6367C1.92318 13.0469 1.94271 13.4017 1.96875 13.7012C1.99479 14.0007 2.02409 14.2513 2.05664 14.4531C2.08919 14.6549 2.125 14.8242 2.16406 14.9609V15H0.425781V14.9609C0.464844 14.8242 0.500651 14.6549 0.533203 14.4531C0.572266 14.2513 0.604818 14.0007 0.630859 13.7012C0.656901 13.4017 0.676432 13.0469 0.689453 12.6367C0.702474 12.2201 0.708984 11.735 0.708984 11.1816V4.82422C0.708984 4.27083 0.702474 3.78906 0.689453 3.37891C0.676432 2.96224 0.656901 2.60417 0.630859 2.30469C0.604818 1.9987 0.572266 1.74479 0.533203 1.54297C0.500651 1.34115 0.464844 1.17188 0.425781 1.03516V0.996094H1.05078Z" fill="#EBE3DF"/>
</svg>
